<svg xmlns="http://www.w3.org/2000/svg" width="1920" height="1080"><path d="M30,-271L427,-262L755,-274Z" fill="#d3e5f3" stroke="#d3e5f3" stroke-width="1.51"/><path d="M936,1303L435,1356L1715,1399Z" fill="#3d70a8" stroke="#3d70a8" stroke-width="1.51"/><path d="M435,1356L-66,1422L1715,1399Z" fill="#567aa9" stroke="#567aa9" stroke-width="1.51"/><path d="M30,-271L755,-274L1825,-357Z" fill="#b7d6eb" stroke="#b7d6eb" stroke-width="1.51"/><path d="M755,-274L1562,-270L1825,-357Z" fill="#9ebfe0" stroke="#9ebfe0" stroke-width="1.51"/><path d="M2162,-67L2101,220L2170,380Z" fill="#6b86b6" stroke="#6b86b6" stroke-width="1.51"/><path d="M2048,1321L1715,1399L2179,1368Z" fill="#09458b" stroke="#09458b" stroke-width="1.51"/><path d="M2158,850L2011,919L2229,1139Z" fill="#195a9d" stroke="#195a9d" stroke-width="1.51"/><path d="M2163,749L2158,850L2229,1139Z" fill="#1e5b9b" stroke="#1e5b9b" stroke-width="1.51"/><path d="M2170,380L2163,749L2229,1139Z" fill="#2b66a1" stroke="#2b66a1" stroke-width="1.51"/><path d="M1896,-357L2162,-67L2282,-191Z" fill="#8494bf" stroke="#8494bf" stroke-width="1.51"/><path d="M2170,380L2229,1139L2282,-191Z" fill="#4d76a8" stroke="#4d76a8" stroke-width="1.51"/><path d="M2162,-67L2170,380L2282,-191Z" fill="#7487b4" stroke="#7487b4" stroke-width="1.51"/><path d="M1983,154L2101,220L2162,-67Z" fill="#748cbc" stroke="#748cbc" stroke-width="1.51"/><path d="M1877,675L2163,749L2170,380Z" fill="#3e75b0" stroke="#3e75b0" stroke-width="1.51"/><path d="M1887,1202L2048,1321L2229,1139Z" fill="#094c95" stroke="#094c95" stroke-width="1.51"/><path d="M2011,919L1887,1202L2229,1139Z" fill="#12569e" stroke="#12569e" stroke-width="1.51"/><path d="M2048,1321L2179,1368L2229,1139Z" fill="#094388" stroke="#094388" stroke-width="1.51"/><path d="M1917,51L1983,154L2162,-67Z" fill="#7991c3" stroke="#7991c3" stroke-width="1.51"/><path d="M1896,-357L1917,51L2162,-67Z" fill="#8398c8" stroke="#8398c8" stroke-width="1.51"/><path d="M1881,360L1877,675L2170,380Z" fill="#4f82ba" stroke="#4f82ba" stroke-width="1.51"/><path d="M1896,-357L1765,-75L1917,51Z" fill="#87a0cd" stroke="#87a0cd" stroke-width="1.51"/><path d="M2011,919L2158,850L2163,749Z" fill="#2564a4" stroke="#2564a4" stroke-width="1.51"/><path d="M2101,220L1881,360L2170,380Z" fill="#6086b8" stroke="#6086b8" stroke-width="1.51"/><path d="M1877,675L2011,919L2163,749Z" fill="#2a6ead" stroke="#2a6ead" stroke-width="1.51"/><path d="M1983,154L1881,360L2101,220Z" fill="#698cbf" stroke="#698cbf" stroke-width="1.51"/><path d="M1764,1146L1887,1202L2011,919Z" fill="#155ea6" stroke="#155ea6" stroke-width="1.51"/><path d="M1887,1202L1715,1399L2048,1321Z" fill="#0d4e95" stroke="#0d4e95" stroke-width="1.51"/><path d="M755,-274L987,-191L1562,-270Z" fill="#a7cae5" stroke="#a7cae5" stroke-width="1.51"/><path d="M1772,635L1877,675L1881,360Z" fill="#4683bd" stroke="#4683bd" stroke-width="1.51"/><path d="M1825,-357L1765,-75L1896,-357Z" fill="#8fa5d1" stroke="#8fa5d1" stroke-width="1.51"/><path d="M1801,244L1881,360L1983,154Z" fill="#6a91c3" stroke="#6a91c3" stroke-width="1.51"/><path d="M1877,675L1682,969L2011,919Z" fill="#2870b2" stroke="#2870b2" stroke-width="1.51"/><path d="M1682,969L1764,1146L2011,919Z" fill="#1b66ad" stroke="#1b66ad" stroke-width="1.51"/><path d="M1917,51L1801,244L1983,154Z" fill="#7494c6" stroke="#7494c6" stroke-width="1.51"/><path d="M1467,1256L1286,1228L1715,1399Z" fill="#2161a3" stroke="#2161a3" stroke-width="1.51"/><path d="M1286,1228L936,1303L1715,1399Z" fill="#2a69a6" stroke="#2a69a6" stroke-width="1.51"/><path d="M1772,635L1682,969L1877,675Z" fill="#317bb8" stroke="#317bb8" stroke-width="1.51"/><path d="M1755,365L1772,635L1881,360Z" fill="#558cc2" stroke="#558cc2" stroke-width="1.51"/><path d="M1765,-75L1801,244L1917,51Z" fill="#7c9bcb" stroke="#7c9bcb" stroke-width="1.51"/><path d="M1562,782L1682,969L1772,635Z" fill="#307dbb" stroke="#307dbb" stroke-width="1.51"/><path d="M1764,1146L1715,1399L1887,1202Z" fill="#11579f" stroke="#11579f" stroke-width="1.51"/><path d="M675,1301L435,1356L936,1303Z" fill="#5a80b1" stroke="#5a80b1" stroke-width="1.51"/><path d="M1765,-75L1542,115L1801,244Z" fill="#7da0d0" stroke="#7da0d0" stroke-width="1.51"/><path d="M1801,244L1755,365L1881,360Z" fill="#6493c5" stroke="#6493c5" stroke-width="1.51"/><path d="M1562,-270L1765,-75L1825,-357Z" fill="#90aad5" stroke="#90aad5" stroke-width="1.51"/><path d="M1755,365L1512,437L1772,635Z" fill="#5491c6" stroke="#5491c6" stroke-width="1.51"/><path d="M1524,1156L1715,1399L1764,1146Z" fill="#165ea5" stroke="#165ea5" stroke-width="1.51"/><path d="M1542,115L1755,365L1801,244Z" fill="#6f9ccb" stroke="#6f9ccb" stroke-width="1.51"/><path d="M987,-191L1359,-166L1562,-270Z" fill="#9bbfe0" stroke="#9bbfe0" stroke-width="1.51"/><path d="M1524,1156L1467,1256L1715,1399Z" fill="#1c60a4" stroke="#1c60a4" stroke-width="1.51"/><path d="M1542,115L1512,437L1755,365Z" fill="#6c9ecd" stroke="#6c9ecd" stroke-width="1.51"/><path d="M1682,969L1524,1156L1764,1146Z" fill="#1c69ae" stroke="#1c69ae" stroke-width="1.51"/><path d="M1517,74L1542,115L1765,-75Z" fill="#83a8d4" stroke="#83a8d4" stroke-width="1.51"/><path d="M1542,746L1562,782L1772,635Z" fill="#3984bf" stroke="#3984bf" stroke-width="1.51"/><path d="M1512,437L1542,746L1772,635Z" fill="#468dc4" stroke="#468dc4" stroke-width="1.51"/><path d="M1562,-270L1517,74L1765,-75Z" fill="#8aabd6" stroke="#8aabd6" stroke-width="1.51"/><path d="M1359,-166L1517,74L1562,-270Z" fill="#90b3da" stroke="#90b3da" stroke-width="1.51"/><path d="M1562,782L1524,1156L1682,969Z" fill="#2674b7" stroke="#2674b7" stroke-width="1.51"/><path d="M1294,475L1382,761L1512,437Z" fill="#539acb" stroke="#539acb" stroke-width="1.51"/><path d="M1272,182L1512,437L1542,115Z" fill="#77a9d2" stroke="#77a9d2" stroke-width="1.51"/><path d="M1512,437L1382,761L1542,746Z" fill="#4790c6" stroke="#4790c6" stroke-width="1.51"/><path d="M1290,1069L1524,1156L1562,782Z" fill="#2b78b9" stroke="#2b78b9" stroke-width="1.51"/><path d="M1382,761L1290,1069L1562,782Z" fill="#3684bf" stroke="#3684bf" stroke-width="1.51"/><path d="M1542,746L1382,761L1562,782Z" fill="#3a88c1" stroke="#3a88c1" stroke-width="1.51"/><path d="M1220,948L1290,1069L1382,761Z" fill="#3886c0" stroke="#3886c0" stroke-width="1.51"/><path d="M1272,182L1294,475L1512,437Z" fill="#6ca7d1" stroke="#6ca7d1" stroke-width="1.51"/><path d="M1517,74L1272,182L1542,115Z" fill="#83add6" stroke="#83add6" stroke-width="1.51"/><path d="M1359,-166L1197,-17L1517,74Z" fill="#90b7db" stroke="#90b7db" stroke-width="1.51"/><path d="M1290,1069L1467,1256L1524,1156Z" fill="#276fb0" stroke="#276fb0" stroke-width="1.51"/><path d="M1290,1069L1286,1228L1467,1256Z" fill="#2b70b1" stroke="#2b70b1" stroke-width="1.51"/><path d="M1197,-17L1272,182L1517,74Z" fill="#8ab5da" stroke="#8ab5da" stroke-width="1.51"/><path d="M1057,1216L936,1303L1286,1228Z" fill="#3b76b2" stroke="#3b76b2" stroke-width="1.51"/><path d="M1272,182L1125,229L1294,475Z" fill="#7ab1d6" stroke="#7ab1d6" stroke-width="1.51"/><path d="M1294,475L1153,663L1382,761Z" fill="#509bcb" stroke="#509bcb" stroke-width="1.51"/><path d="M1153,663L1220,948L1382,761Z" fill="#4492c6" stroke="#4492c6" stroke-width="1.51"/><path d="M987,-191L1197,-17L1359,-166Z" fill="#9cc2e2" stroke="#9cc2e2" stroke-width="1.51"/><path d="M1153,663L1074,895L1220,948Z" fill="#4893c7" stroke="#4893c7" stroke-width="1.51"/><path d="M1197,-17L1125,229L1272,182Z" fill="#8bb8dc" stroke="#8bb8dc" stroke-width="1.51"/><path d="M1148,1126L1286,1228L1290,1069Z" fill="#3478b6" stroke="#3478b6" stroke-width="1.51"/><path d="M1125,229L1141,485L1294,475Z" fill="#71add4" stroke="#71add4" stroke-width="1.51"/><path d="M1141,485L1153,663L1294,475Z" fill="#5ea4d1" stroke="#5ea4d1" stroke-width="1.51"/><path d="M1220,948L1148,1126L1290,1069Z" fill="#3880bc" stroke="#3880bc" stroke-width="1.51"/><path d="M1148,1126L1057,1216L1286,1228Z" fill="#3878b5" stroke="#3878b5" stroke-width="1.51"/><path d="M1028,24L1125,229L1197,-17Z" fill="#94bedf" stroke="#94bedf" stroke-width="1.51"/><path d="M987,-191L1028,24L1197,-17Z" fill="#9ec5e3" stroke="#9ec5e3" stroke-width="1.51"/><path d="M1074,895L1148,1126L1220,948Z" fill="#3f87c1" stroke="#3f87c1" stroke-width="1.51"/><path d="M1028,24L946,220L1125,229Z" fill="#91bfdf" stroke="#91bfdf" stroke-width="1.51"/><path d="M1125,229L946,220L1141,485Z" fill="#81b7d9" stroke="#81b7d9" stroke-width="1.51"/><path d="M946,220L932,536L1141,485Z" fill="#78b4d8" stroke="#78b4d8" stroke-width="1.51"/><path d="M1074,895L883,1164L1148,1126Z" fill="#4587bf" stroke="#4587bf" stroke-width="1.51"/><path d="M883,1164L1057,1216L1148,1126Z" fill="#417eba" stroke="#417eba" stroke-width="1.51"/><path d="M1141,485L932,536L1153,663Z" fill="#63a7d3" stroke="#63a7d3" stroke-width="1.51"/><path d="M932,536L1074,895L1153,663Z" fill="#58a0ce" stroke="#58a0ce" stroke-width="1.51"/><path d="M932,536L824,574L1074,895Z" fill="#62a6d2" stroke="#62a6d2" stroke-width="1.51"/><path d="M819,974L883,1164L1074,895Z" fill="#4e8fc5" stroke="#4e8fc5" stroke-width="1.51"/><path d="M824,574L733,647L1074,895Z" fill="#64a7d2" stroke="#64a7d2" stroke-width="1.51"/><path d="M733,647L819,974L1074,895Z" fill="#5c9ecd" stroke="#5c9ecd" stroke-width="1.51"/><path d="M883,1164L936,1303L1057,1216Z" fill="#447db7" stroke="#447db7" stroke-width="1.51"/><path d="M688,475L932,536L946,220Z" fill="#83badb" stroke="#83badb" stroke-width="1.51"/><path d="M707,-4L807,85L987,-191Z" fill="#abcee7" stroke="#abcee7" stroke-width="1.51"/><path d="M987,-191L807,85L1028,24Z" fill="#a3c9e5" stroke="#a3c9e5" stroke-width="1.51"/><path d="M807,85L946,220L1028,24Z" fill="#9bc5e3" stroke="#9bc5e3" stroke-width="1.51"/><path d="M631,312L688,475L946,220Z" fill="#93c3df" stroke="#93c3df" stroke-width="1.51"/><path d="M755,-274L695,-217L987,-191Z" fill="#b7d6eb" stroke="#b7d6eb" stroke-width="1.51"/><path d="M695,-217L707,-4L987,-191Z" fill="#b3d3e9" stroke="#b3d3e9" stroke-width="1.51"/><path d="M688,475L824,574L932,536Z" fill="#78b4d9" stroke="#78b4d9" stroke-width="1.51"/><path d="M807,85L631,312L946,220Z" fill="#9cc7e1" stroke="#9cc7e1" stroke-width="1.51"/><path d="M883,1164L675,1301L936,1303Z" fill="#5080b6" stroke="#5080b6" stroke-width="1.51"/><path d="M733,647L558,773L819,974Z" fill="#6da8d1" stroke="#6da8d1" stroke-width="1.51"/><path d="M819,974L569,1085L883,1164Z" fill="#5c91c5" stroke="#5c91c5" stroke-width="1.51"/><path d="M569,1085L675,1301L883,1164Z" fill="#5c8abe" stroke="#5c8abe" stroke-width="1.51"/><path d="M558,773L569,1085L819,974Z" fill="#699fcc" stroke="#699fcc" stroke-width="1.51"/><path d="M688,475L733,647L824,574Z" fill="#7ab5d9" stroke="#7ab5d9" stroke-width="1.51"/><path d="M707,-4L631,312L807,85Z" fill="#a8cde5" stroke="#a8cde5" stroke-width="1.51"/><path d="M558,773L492,807L569,1085Z" fill="#74a6d1" stroke="#74a6d1" stroke-width="1.51"/><path d="M391,62L631,312L707,-4Z" fill="#b2d2e8" stroke="#b2d2e8" stroke-width="1.51"/><path d="M427,-262L695,-217L755,-274Z" fill="#c5deee" stroke="#c5deee" stroke-width="1.51"/><path d="M428,714L558,773L688,475Z" fill="#81b6d9" stroke="#81b6d9" stroke-width="1.51"/><path d="M688,475L558,773L733,647Z" fill="#7cb4d8" stroke="#7cb4d8" stroke-width="1.51"/><path d="M419,428L428,714L688,475Z" fill="#8cbfde" stroke="#8cbfde" stroke-width="1.51"/><path d="M695,-217L427,-262L707,-4Z" fill="#c1dced" stroke="#c1dced" stroke-width="1.51"/><path d="M427,-262L391,62L707,-4Z" fill="#c2dbed" stroke="#c2dbed" stroke-width="1.51"/><path d="M631,312L419,428L688,475Z" fill="#97c5e0" stroke="#97c5e0" stroke-width="1.51"/><path d="M569,1085L435,1356L675,1301Z" fill="#6589bc" stroke="#6589bc" stroke-width="1.51"/><path d="M313,123L419,428L631,312Z" fill="#abcfe5" stroke="#abcfe5" stroke-width="1.51"/><path d="M391,62L313,123L631,312Z" fill="#b6d4e9" stroke="#b6d4e9" stroke-width="1.51"/><path d="M74,1327L-66,1422L435,1356Z" fill="#7788b5" stroke="#7788b5" stroke-width="1.51"/><path d="M492,807L323,1177L569,1085Z" fill="#739dcd" stroke="#739dcd" stroke-width="1.51"/><path d="M323,1177L435,1356L569,1085Z" fill="#6f8fc2" stroke="#6f8fc2" stroke-width="1.51"/><path d="M428,714L492,807L558,773Z" fill="#7db1d6" stroke="#7db1d6" stroke-width="1.51"/><path d="M143,-134L391,62L427,-262Z" fill="#cfe1f2" stroke="#cfe1f2" stroke-width="1.51"/><path d="M419,428L253,576L428,714Z" fill="#94c0e0" stroke="#94c0e0" stroke-width="1.51"/><path d="M428,714L74,814L492,807Z" fill="#87b4d9" stroke="#87b4d9" stroke-width="1.51"/><path d="M74,814L323,1177L492,807Z" fill="#82a8d4" stroke="#82a8d4" stroke-width="1.51"/><path d="M74,814L-6,994L323,1177Z" fill="#85a7d4" stroke="#85a7d4" stroke-width="1.51"/><path d="M313,123L87,258L419,428Z" fill="#b7d4e9" stroke="#b7d4e9" stroke-width="1.51"/><path d="M30,-271L64,-213L427,-262Z" fill="#dde9f7" stroke="#dde9f7" stroke-width="1.51"/><path d="M278,1214L74,1327L435,1356Z" fill="#758cbc" stroke="#758cbc" stroke-width="1.51"/><path d="M323,1177L278,1214L435,1356Z" fill="#738ec0" stroke="#738ec0" stroke-width="1.51"/><path d="M64,-213L143,-134L427,-262Z" fill="#d9e7f5" stroke="#d9e7f5" stroke-width="1.51"/><path d="M253,576L74,814L428,714Z" fill="#90bbde" stroke="#90bbde" stroke-width="1.51"/><path d="M87,258L72,459L419,428Z" fill="#afd0e7" stroke="#afd0e7" stroke-width="1.51"/><path d="M72,459L253,576L419,428Z" fill="#a2c8e5" stroke="#a2c8e5" stroke-width="1.51"/><path d="M143,-134L313,123L391,62Z" fill="#caddf0" stroke="#caddf0" stroke-width="1.51"/><path d="M42,363L72,459L87,258Z" fill="#b6d4e9" stroke="#b6d4e9" stroke-width="1.51"/><path d="M-6,994L278,1214L323,1177Z" fill="#7e9bcb" stroke="#7e9bcb" stroke-width="1.51"/><path d="M143,-134L87,258L313,123Z" fill="#cadef0" stroke="#cadef0" stroke-width="1.51"/><path d="M30,-122L87,258L143,-134Z" fill="#d2e2f3" stroke="#d2e2f3" stroke-width="1.51"/><path d="M-4,571L74,814L253,576Z" fill="#9ac1e1" stroke="#9ac1e1" stroke-width="1.51"/><path d="M-6,994L74,1327L278,1214Z" fill="#7f99c9" stroke="#7f99c9" stroke-width="1.51"/><path d="M72,459L-4,571L253,576Z" fill="#a2c9e5" stroke="#a2c9e5" stroke-width="1.51"/><path d="M-230,-68L-76,291L30,-122Z" fill="#d7e6f5" stroke="#d7e6f5" stroke-width="1.51"/><path d="M-4,571L-31,774L74,814Z" fill="#98bfdf" stroke="#98bfdf" stroke-width="1.51"/><path d="M-6,994L-177,1050L74,1327Z" fill="#87a1ce" stroke="#87a1ce" stroke-width="1.51"/><path d="M30,-122L-76,291L87,258Z" fill="#cbdff1" stroke="#cbdff1" stroke-width="1.51"/><path d="M64,-213L30,-122L143,-134Z" fill="#dbe9f6" stroke="#dbe9f6" stroke-width="1.51"/><path d="M-31,774L-6,994L74,814Z" fill="#90b5da" stroke="#90b5da" stroke-width="1.51"/><path d="M-177,1050L-66,1422L74,1327Z" fill="#8295c4" stroke="#8295c4" stroke-width="1.51"/><path d="M-76,291L42,363L87,258Z" fill="#bdd9eb" stroke="#bdd9eb" stroke-width="1.51"/><path d="M42,363L-4,571L72,459Z" fill="#accfe8" stroke="#accfe8" stroke-width="1.51"/><path d="M-76,291L-4,571L42,363Z" fill="#b4d3e9" stroke="#b4d3e9" stroke-width="1.51"/><path d="M30,-271L30,-122L64,-213Z" fill="#deebf7" stroke="#deebf7" stroke-width="1.51"/><path d="M30,-271L-230,-68L30,-122Z" fill="#dfebf7" stroke="#dfebf7" stroke-width="1.51"/><path d="M-177,1050L-339,1338L-66,1422Z" fill="#8899c5" stroke="#8899c5" stroke-width="1.51"/><path d="M-371,-219L-230,-68L30,-271Z" fill="#e6f0fa" stroke="#e6f0fa" stroke-width="1.51"/><path d="M-230,-68L-329,259L-76,291Z" fill="#d2e4f3" stroke="#d2e4f3" stroke-width="1.51"/><path d="M-351,807L-177,1050L-31,774Z" fill="#97b7dc" stroke="#97b7dc" stroke-width="1.51"/><path d="M-31,774L-177,1050L-6,994Z" fill="#8fb0d8" stroke="#8fb0d8" stroke-width="1.51"/><path d="M-76,291L-352,397L-4,571Z" fill="#b7d6ea" stroke="#b7d6ea" stroke-width="1.51"/><path d="M-356,707L-31,774L-4,571Z" fill="#a0c5e3" stroke="#a0c5e3" stroke-width="1.51"/><path d="M-352,397L-356,707L-4,571Z" fill="#aecfe8" stroke="#aecfe8" stroke-width="1.51"/><path d="M-356,707L-351,807L-31,774Z" fill="#9fc2e1" stroke="#9fc2e1" stroke-width="1.51"/><path d="M-329,259L-352,397L-76,291Z" fill="#c6dfee" stroke="#c6dfee" stroke-width="1.51"/><path d="M-351,807L-339,1338L-177,1050Z" fill="#93abd5" stroke="#93abd5" stroke-width="1.51"/><path d="M-371,-219L-329,259L-230,-68Z" fill="#e1ecf8" stroke="#e1ecf8" stroke-width="1.51"/><path d="M-371,-219L-352,397L-329,259Z" fill="#d8e8f5" stroke="#d8e8f5" stroke-width="1.51"/><path d="M-351,807L-356,707L-339,1338Z" fill="#9ab5db" stroke="#9ab5db" stroke-width="1.51"/><path d="M-371,-219L-356,707L-352,397Z" fill="#cce3f0" stroke="#cce3f0" stroke-width="1.51"/></svg>